<svg width="495" height="40" viewBox="0 0 495 40" fill="none" xmlns="http://www.w3.org/2000/svg">
<rect x="0.5" y="0.5" width="69" height="39" rx="19.5" stroke="#78C081"/>
<rect x="85.5" y="0.5" width="69" height="39" rx="19.5" stroke="#78C081"/>
<rect x="425.5" y="0.5" width="69" height="39" rx="19.5" stroke="#78C081"/>
<rect x="170.5" y="0.5" width="69" height="39" rx="19.5" stroke="#78C081"/>
<rect x="255.5" y="0.5" width="69" height="39" rx="19.5" stroke="#78C081"/>
<rect x="340.5" y="0.5" width="69" height="39" rx="19.5" stroke="#78C081"/>
<path d="M19.4362 22.5447C21.3292 24.1334 23.4747 25.9342 27.6248 25.9342C31.775 25.9342 33.9206 24.1334 35.8136 22.5447C37.6039 21.0422 39.15 19.7446 42.3749 19.7446C45.5998 19.7446 47.146 21.0422 48.9361 22.5447C49.4602 22.9844 50.2493 22.9254 50.6988 22.4126C51.1482 21.8999 51.0878 21.1277 50.5638 20.688C48.6707 19.0992 46.5251 17.2984 42.3749 17.2984C38.2247 17.2984 36.0791 19.0992 34.186 20.688C32.3958 22.1904 30.8496 23.488 27.6248 23.488C24.4 23.488 22.854 22.1905 21.0639 20.688C20.5399 20.2482 19.7508 20.3072 19.3013 20.82C18.8518 21.3327 18.9122 22.1049 19.4362 22.5447Z" fill="#78C081"/>
<path d="M19.4362 15.8544C21.3291 17.4432 23.4746 19.2439 27.6248 19.2439C31.775 19.2439 33.9206 17.4432 35.8136 15.8544C37.6039 14.3519 39.15 13.0543 42.3749 13.0543C45.5997 13.0543 47.1458 14.3519 48.9361 15.8544C49.4602 16.2942 50.2493 16.235 50.6987 15.7222C51.1482 15.2095 51.0876 14.4372 50.5636 13.9975C48.6706 12.4087 46.525 10.6081 42.3749 10.6081C38.2247 10.6081 36.0791 12.4088 34.186 13.9976C32.3958 15.5001 30.8496 16.7977 27.6248 16.7977C24.4 16.7977 22.854 15.5002 21.0639 13.9976C20.5399 13.5578 19.7507 13.6169 19.3013 14.1297C18.8518 14.6424 18.9122 15.4146 19.4362 15.8544Z" fill="#78C081"/>
<path d="M50.5637 27.3773C48.6707 25.7886 46.525 23.9878 42.3748 23.9878C38.2247 23.9878 36.079 25.7885 34.186 27.3773C32.3957 28.8798 30.8496 30.1774 27.6247 30.1774C24.4001 30.1774 22.854 28.8798 21.0639 27.3774L21.0638 27.3773C20.5398 26.9377 19.7507 26.9967 19.3012 27.5094C18.8518 28.0221 18.9122 28.7943 19.4362 29.2341C21.3292 30.8229 23.4748 32.6236 27.6247 32.6236C31.7749 32.6236 33.9205 30.8228 35.8136 29.234C37.6038 27.7316 39.15 26.4339 42.3748 26.4339C45.5998 26.4339 47.1459 27.7316 48.9361 29.234C49.4602 29.6738 50.2493 29.6147 50.6987 29.102C51.1482 28.5892 51.0878 27.8171 50.5637 27.3773Z" fill="#78C081"/>
<path fill-rule="evenodd" clip-rule="evenodd" d="M116.18 29.0065C116.18 30.8461 117.628 32.3416 119.41 32.3416C121.191 32.3416 122.639 30.8461 122.639 29.0065C122.639 27.1671 121.191 25.6715 119.41 25.6715C117.628 25.6715 116.18 27.1671 116.18 29.0065ZM119.41 30.6998C118.507 30.6998 117.77 29.9396 117.77 29.0065C117.77 28.0735 118.507 27.3133 119.41 27.3133C120.313 27.3133 121.049 28.0735 121.049 29.0065C121.049 29.9396 120.313 30.6998 119.41 30.6998Z" fill="#78C081"/>
<path fill-rule="evenodd" clip-rule="evenodd" d="M119.41 27.3134C119.849 27.3134 120.205 26.9458 120.205 26.4925V14.9512C120.205 14.4979 119.849 14.1303 119.41 14.1303C118.971 14.1303 118.615 14.4979 118.615 14.9512V26.4925C118.615 26.9458 118.971 27.3134 119.41 27.3134Z" fill="#78C081"/>
<path fill-rule="evenodd" clip-rule="evenodd" d="M119.41 33.9841C116.748 33.9841 114.59 31.7557 114.59 29.0066C114.59 27.2936 115.427 25.7825 116.706 24.8857C116.924 24.7329 117.054 24.4786 117.054 24.2067V11.6806C117.054 10.3368 118.109 9.24776 119.41 9.24776C120.711 9.24776 121.765 10.3368 121.765 11.6806V24.2067C121.765 24.4786 121.896 24.7329 122.114 24.8857C123.392 25.7825 124.229 27.2936 124.229 29.0066C124.229 31.7557 122.071 33.9841 119.41 33.9841ZM113 29.0066C113 32.6622 115.87 35.6259 119.41 35.6259C122.95 35.6259 125.819 32.6622 125.819 29.0066C125.819 26.8869 124.854 25.0005 123.355 23.79V11.6806C123.355 9.43033 121.589 7.60596 119.41 7.60596C117.23 7.60596 115.464 9.43033 115.464 11.6806V23.79C113.965 25.0005 113 26.8869 113 29.0066Z" fill="#78C081"/>
<path fill-rule="evenodd" clip-rule="evenodd" d="M124.946 21.5331C124.946 21.9865 125.302 22.354 125.741 22.354H128.205C128.644 22.354 129 21.9865 129 21.5331C129 21.0797 128.644 20.7122 128.205 20.7122H125.741C125.302 20.7122 124.946 21.0797 124.946 21.5331Z" fill="#78C081"/>
<path fill-rule="evenodd" clip-rule="evenodd" d="M124.946 18.2493C124.946 18.7027 125.302 19.0702 125.741 19.0702H128.205C128.644 19.0702 129 18.7027 129 18.2493C129 17.7959 128.644 17.4284 128.205 17.4284H125.741C125.302 17.4284 124.946 17.7959 124.946 18.2493Z" fill="#78C081"/>
<path fill-rule="evenodd" clip-rule="evenodd" d="M124.946 14.9647C124.946 15.4181 125.302 15.7856 125.741 15.7856H128.205C128.644 15.7856 129 15.4181 129 14.9647C129 14.5114 128.644 14.1439 128.205 14.1439H125.741C125.302 14.1439 124.946 14.5114 124.946 14.9647Z" fill="#78C081"/>
<path fill-rule="evenodd" clip-rule="evenodd" d="M124.946 11.6805C124.946 12.1338 125.302 12.5014 125.741 12.5014H128.205C128.644 12.5014 129 12.1338 129 11.6805C129 11.2271 128.644 10.8596 128.205 10.8596H125.741C125.302 10.8596 124.946 11.2271 124.946 11.6805Z" fill="#78C081"/>
<g clip-path="url(#clip0_5503_3)">
<path d="M218.616 13.8851L205.394 6.10727C205.151 5.96457 204.849 5.96457 204.606 6.10727L191.384 13.8851C191.146 14.0247 191 14.2799 191 14.5556V33.2223C191 33.6518 191.348 34.0002 191.778 34.0002H198.826C199.234 33.9999 199.573 33.6834 199.601 33.2756C199.704 31.5176 200.182 29.8021 201.003 28.2446C201.872 28.8282 202.878 29.1737 203.921 29.2463C204.099 29.26 204.275 29.2671 204.449 29.2671C206.052 29.2842 207.593 28.6451 208.713 27.4981C209.568 26.3539 209.962 24.9297 209.816 23.5087C209.794 22.1136 209.773 20.6704 211.773 18.271C211.956 18.0508 212.004 17.748 211.897 17.4823C211.79 17.2168 211.545 17.0314 211.261 16.9995C206.43 16.458 200.934 18.817 199.259 22.1407C198.402 23.7571 198.637 25.7352 199.848 27.1064C198.911 28.7468 198.191 30.1204 198 32L193 32V15L205 8L217 15V32L202.667 32C202.237 32 201.829 32.5 201.829 33C201.829 33.5 202.237 34.0002 202.667 34.0002H218.222C218.652 34.0002 219 33.6518 219 33.2223V14.5556C219 14.2799 218.854 14.0247 218.616 13.8851ZM200.647 22.8408C201.754 20.6465 205.567 18.5168 209.677 18.4749C208.631 19.9449 208.131 21.7331 208.26 23.5321C208.395 24.572 208.138 25.625 207.538 26.4852C206.607 27.3824 205.328 27.825 204.042 27.6952C203.251 27.6442 202.488 27.385 201.829 26.9438C202.559 25.9788 203.498 25.1924 204.576 24.6435C204.96 24.4512 205.116 23.9841 204.924 23.5999C204.732 23.2156 204.265 23.0598 203.88 23.2521C202.69 23.8599 201.642 24.713 200.805 25.7549C200.208 24.8907 200.147 23.7645 200.647 22.8408Z" fill="#78C081"/>
</g>
<path d="M290 6C287.231 6.00005 284.524 6.82118 282.222 8.35955C279.92 9.89793 278.125 12.0844 277.066 14.6426C276.006 17.2008 275.729 20.0157 276.269 22.7314C276.809 25.4471 278.143 27.9417 280.101 29.8996C282.059 31.8575 284.553 33.1908 287.269 33.731C289.984 34.2712 292.799 33.9939 295.357 32.9343C297.916 31.8746 300.102 30.0802 301.64 27.778C303.179 25.4757 304 22.7689 304 20C303.996 16.2882 302.519 12.7297 299.895 10.1051C297.27 7.48049 293.711 6.00416 290 6ZM290 33.0674C287.415 33.0674 284.889 32.301 282.74 30.8651C280.591 29.4292 278.916 27.3884 277.927 25.0007C276.938 22.613 276.68 19.9857 277.184 17.4509C277.688 14.9162 278.933 12.5878 280.76 10.7604C282.588 8.93293 284.916 7.6884 287.451 7.1842C289.985 6.67999 292.613 6.93874 295 7.92773C297.388 8.91672 299.429 10.5915 300.865 12.7404C302.3 14.8892 303.067 17.4156 303.067 20C303.063 23.4645 301.685 26.7859 299.235 29.2356C296.785 31.6853 293.464 33.0635 290 33.0674Z" fill="#78C081"/>
<path d="M290 33.0674C287.415 33.0674 284.889 32.301 282.74 30.8651C280.591 29.4292 278.916 27.3884 277.927 25.0007C276.938 22.613 276.68 19.9857 277.184 17.4509C277.688 14.9162 278.933 12.5878 280.76 10.7604C282.588 8.93293 284.916 7.6884 287.451 7.1842C289.985 6.67999 292.613 6.93874 295 7.92773C297.388 8.91672 299.429 10.5915 300.865 12.7404C302.3 14.8892 303.067 17.4156 303.067 20C303.063 23.4645 301.685 26.7859 299.235 29.2356C296.785 31.6853 293.464 33.0635 290 33.0674Z" fill="#78C081"/>
<path d="M281.155 25.8285C279.574 23.7851 278.816 21.2712 279.018 18.7425C279.22 16.2138 280.369 13.8376 282.256 12.0443C284.144 10.2511 286.645 9.15957 289.307 8.96752C291.969 8.77546 294.615 9.4956 296.766 10.9974L281.155 25.8285Z" fill="white"/>
<path fill-rule="evenodd" clip-rule="evenodd" d="M297.999 10.9278C297.996 10.8625 297.978 10.7987 297.947 10.7404C297.916 10.6821 297.872 10.6307 297.819 10.5894C295.486 8.78616 292.532 7.86891 289.528 8.01514C286.525 8.16136 283.685 9.36066 281.558 11.381C279.432 13.4014 278.17 16.0993 278.016 18.9527C277.862 21.8061 278.828 24.6122 280.726 26.8283C280.77 26.879 280.824 26.9206 280.885 26.9502C280.946 26.9798 281.014 26.9968 281.082 27.0001H281.107C281.172 27.0001 281.236 26.988 281.295 26.9645C281.355 26.9411 281.409 26.9066 281.455 26.8633L297.856 11.2827C297.905 11.2364 297.943 11.1809 297.967 11.1197C297.992 11.0586 298.003 10.9932 297.999 10.9278ZM279.018 18.7425C278.816 21.2712 279.574 23.7851 281.155 25.8285L296.766 10.9974C294.615 9.4956 291.969 8.77546 289.307 8.96752C286.645 9.15957 284.144 10.2511 282.256 12.0443C280.369 13.8376 279.22 16.2138 279.018 18.7425Z" fill="white"/>
<path d="M289.745 31.0583C287.418 31.0657 285.147 30.3804 283.251 29.0989L298.945 14.1901C300.294 15.9906 301.016 18.1474 301.009 20.3576C301.005 23.1946 299.817 25.9145 297.706 27.9206C295.594 29.9266 292.731 31.0551 289.745 31.0583Z" fill="white"/>
<path fill-rule="evenodd" clip-rule="evenodd" d="M299.39 13.1802C299.347 13.1277 299.293 13.0847 299.231 13.0537C299.168 13.0228 299.1 13.0047 299.03 13.0007C298.96 12.9974 298.89 13.0078 298.825 13.0315C298.76 13.0551 298.7 13.0913 298.65 13.1379L282.145 28.8176C282.096 28.8647 282.057 28.9213 282.032 28.9835C282.007 29.0458 281.997 29.1124 282.001 29.1789C282.005 29.2454 282.024 29.3103 282.057 29.3693C282.089 29.4282 282.135 29.48 282.19 29.5211C284.341 31.1346 287.004 32.0084 289.745 32.0001C292.994 31.9967 296.109 30.7689 298.406 28.5863C300.704 26.4036 301.996 23.4443 302 20.3576C302.009 17.7538 301.089 15.2239 299.39 13.1802ZM283.251 29.0989C285.147 30.3804 287.418 31.0657 289.745 31.0583C292.731 31.0551 295.594 29.9266 297.706 27.9206C299.817 25.9145 301.005 23.1946 301.009 20.3576C301.016 18.1474 300.294 15.9906 298.945 14.1901L283.251 29.0989Z" fill="white"/>
<path d="M288 14.2106C288 14.45 288.071 14.6841 288.204 14.8832C288.337 15.0822 288.526 15.2374 288.747 15.329C288.968 15.4206 289.212 15.4446 289.447 15.3979C289.682 15.3512 289.897 15.2359 290.067 15.0666C290.236 14.8973 290.351 14.6816 290.398 14.4468C290.445 14.212 290.421 13.9686 290.329 13.7474C290.237 13.5262 290.082 13.3371 289.883 13.2041C289.684 13.0711 289.45 13.0001 289.211 13.0001C288.89 13.0004 288.582 13.1281 288.355 13.355C288.128 13.582 288 13.8897 288 14.2106ZM289.488 14.2106C289.488 14.2655 289.472 14.3192 289.441 14.3649C289.411 14.4106 289.367 14.4462 289.317 14.4672C289.266 14.4882 289.21 14.4937 289.156 14.483C289.102 14.4723 289.053 14.4458 289.014 14.407C288.975 14.3682 288.949 14.3187 288.938 14.2648C288.927 14.2109 288.933 14.1551 288.954 14.1043C288.975 14.0536 289.01 14.0102 289.056 13.9797C289.102 13.9492 289.155 13.9329 289.21 13.9329C289.284 13.933 289.355 13.9622 289.407 14.0143C289.459 14.0664 289.488 14.137 289.488 14.2106Z" fill="#78C081"/>
<path d="M298.211 19.0001C297.971 19.0001 297.737 19.0711 297.538 19.2041C297.339 19.3371 297.184 19.5262 297.092 19.7474C297.001 19.9686 296.977 20.212 297.023 20.4468C297.07 20.6816 297.185 20.8973 297.355 21.0666C297.524 21.2359 297.74 21.3512 297.974 21.3979C298.209 21.4446 298.453 21.4207 298.674 21.3291C298.895 21.2374 299.084 21.0823 299.217 20.8832C299.35 20.6841 299.421 20.4501 299.421 20.2106C299.421 19.8897 299.293 19.5819 299.066 19.355C298.839 19.128 298.532 19.0004 298.211 19.0001ZM298.211 20.4881C298.156 20.4881 298.102 20.4718 298.056 20.4413C298.011 20.4107 297.975 20.3674 297.954 20.3166C297.933 20.2658 297.927 20.21 297.938 20.1561C297.949 20.1022 297.975 20.0527 298.014 20.0139C298.053 19.9751 298.103 19.9487 298.157 19.938C298.21 19.9273 298.266 19.9328 298.317 19.9539C298.368 19.9749 298.411 20.0106 298.442 20.0563C298.472 20.102 298.488 20.1557 298.488 20.2106C298.488 20.2843 298.459 20.3548 298.407 20.4069C298.355 20.4589 298.284 20.4881 298.211 20.4881Z" fill="#78C081"/>
<path d="M282.5 15.0001C282.006 15.0001 281.522 15.1467 281.111 15.4214C280.7 15.6961 280.38 16.0865 280.19 16.5434C280.001 17.0002 279.952 17.5029 280.048 17.9878C280.145 18.4728 280.383 18.9182 280.732 19.2679C281.082 19.6175 281.527 19.8556 282.012 19.9521C282.497 20.0485 283 19.999 283.457 19.8098C283.914 19.6206 284.304 19.3001 284.579 18.889C284.853 18.4779 285 17.9945 285 17.5001C284.999 16.8373 284.736 16.2018 284.267 15.7331C283.798 15.2644 283.163 15.0008 282.5 15.0001ZM282.5 18.6275C282.277 18.6275 282.059 18.5614 281.874 18.4375C281.688 18.3136 281.544 18.1376 281.458 17.9315C281.373 17.7255 281.351 17.4988 281.394 17.2801C281.438 17.0614 281.545 16.8605 281.703 16.7028C281.86 16.5452 282.061 16.4378 282.28 16.3943C282.499 16.3508 282.725 16.3731 282.931 16.4584C283.137 16.5438 283.314 16.6883 283.437 16.8737C283.561 17.0591 283.627 17.2771 283.627 17.5001C283.627 17.799 283.508 18.0856 283.297 18.297C283.086 18.5083 282.799 18.6272 282.5 18.6275Z" fill="#78C081"/>
<path d="M296.64 26.0744L296.398 25.9904C296.555 25.4803 296.531 24.9328 296.329 24.4382C296.127 23.9436 295.759 23.5314 295.287 23.2695L295.393 22.7643C295.422 22.6265 295.394 22.4829 295.315 22.3654C295.236 22.2478 295.113 22.1657 294.973 22.1373C294.832 22.1089 294.686 22.1364 294.567 22.2138C294.447 22.2911 294.363 22.412 294.334 22.5499L294.291 22.7595C294.068 22.4578 293.757 22.2297 293.399 22.1054C293.041 21.9811 292.654 21.9665 292.287 22.0635C291.921 22.1605 291.593 22.3645 291.348 22.6486C291.102 22.9326 290.95 23.2833 290.912 23.6541C290.854 23.6756 290.801 23.7056 290.746 23.7311L290.414 23.3481C290.32 23.242 290.188 23.1766 290.045 23.1661C289.903 23.1557 289.762 23.2011 289.654 23.2923C289.545 23.3836 289.478 23.5133 289.467 23.6532C289.455 23.793 289.501 23.9316 289.593 24.0386L289.887 24.3755C289.582 24.7243 289.381 25.1495 289.308 25.6036C289.235 26.0577 289.291 26.5228 289.471 26.9472L289.216 27.1352C289.101 27.2197 289.026 27.3454 289.005 27.4847C288.985 27.6241 289.022 27.7656 289.108 27.8782C289.194 27.9908 289.322 28.0652 289.464 28.0852C289.606 28.1051 289.75 28.0688 289.864 27.9843L290.09 27.8179C290.427 28.1285 290.845 28.3428 291.297 28.4374C291.749 28.532 292.219 28.5034 292.655 28.3546L292.723 28.6051C292.759 28.7412 292.849 28.8574 292.973 28.9282C293.097 28.999 293.245 29.0185 293.383 28.9825C293.522 28.9465 293.64 28.858 293.712 28.7363C293.784 28.6146 293.804 28.4698 293.767 28.3337L293.613 27.7639C293.656 27.7214 293.701 27.6796 293.741 27.6335C293.863 27.6524 293.986 27.662 294.109 27.662C294.434 27.6618 294.756 27.5962 295.055 27.4692C295.354 27.3421 295.623 27.1563 295.846 26.9232L296.279 27.0749C296.346 27.0981 296.417 27.1082 296.488 27.1046C296.559 27.1009 296.628 27.0836 296.692 27.0535C296.756 27.0235 296.814 26.9814 296.861 26.9296C296.909 26.8778 296.945 26.8173 296.969 26.7516C296.993 26.6859 297.003 26.6162 296.999 26.5466C296.996 26.477 296.978 26.4088 296.947 26.3459C296.917 26.283 296.874 26.2266 296.821 26.18C296.768 26.1333 296.707 26.0974 296.64 26.0741L296.64 26.0744ZM294.108 26.6012C293.967 26.6008 293.826 26.578 293.692 26.5335C293.577 26.4955 293.453 26.4966 293.339 26.5368C293.224 26.5769 293.127 26.6536 293.063 26.7546C292.964 26.91 292.836 27.0456 292.686 27.1543C292.682 27.1574 292.677 27.1595 292.673 27.1625C292.494 27.288 292.289 27.3725 292.072 27.4095C291.856 27.4466 291.633 27.4354 291.422 27.3767C291.211 27.318 291.015 27.2133 290.851 27.0704C290.686 26.9275 290.556 26.75 290.471 26.5512C290.385 26.3523 290.346 26.1371 290.357 25.9215C290.368 25.7059 290.428 25.4954 290.532 25.3057C290.637 25.1159 290.784 24.9517 290.962 24.8252C291.14 24.6988 291.345 24.6133 291.561 24.5751C291.7 24.5503 291.824 24.4729 291.906 24.3595C291.988 24.2462 292.021 24.1058 291.999 23.9686C291.965 23.7716 292.01 23.5695 292.124 23.4042C292.238 23.2389 292.413 23.123 292.611 23.0804C292.81 23.0379 293.018 23.072 293.191 23.1756C293.365 23.2793 293.492 23.4446 293.545 23.6374C293.576 23.7491 293.644 23.8476 293.738 23.9177C293.832 23.9879 293.947 24.0259 294.065 24.0259C294.075 24.0259 294.096 24.0259 294.118 24.0238C294.466 24.0248 294.799 24.1617 295.045 24.4041C295.29 24.6466 295.427 24.9749 295.426 25.3167C295.425 25.6585 295.285 25.9859 295.039 26.2269C294.792 26.4678 294.458 26.6026 294.11 26.6015L294.108 26.6012Z" fill="#78C081"/>
<g clip-path="url(#clip1_5503_3)">
<path d="M380.091 12.1705C378.592 10.3435 377.04 8.457 375.79 6.4305C375.625 6.1645 375.325 6 375 6C374.675 6 374.375 6.1645 374.212 6.4305C372.961 8.45525 371.41 10.3435 369.911 12.1688C366.871 15.8682 364 19.363 364 23.5C364 29.2908 368.934 34 375 34C381.066 34 386 29.2908 386 23.5C386 19.3647 383.131 15.87 380.091 12.1705ZM375 32.25C369.946 32.25 365.833 28.3247 365.833 23.5C365.833 19.9668 368.514 16.7048 371.354 13.2485C372.593 11.74 373.865 10.1912 375 8.53225C376.135 10.1912 377.407 11.7418 378.647 13.2503C381.486 16.7048 384.167 19.9685 384.167 23.5C384.167 28.3247 380.055 32.25 375 32.25Z" fill="#78C081"/>
<path d="M372.25 16.5C370.734 16.5 369.5 17.6777 369.5 19.125C369.5 20.5722 370.734 21.75 372.25 21.75C373.766 21.75 375 20.5722 375 19.125C375 17.6777 373.766 16.5 372.25 16.5ZM372.25 20C371.744 20 371.333 19.608 371.333 19.125C371.333 18.642 371.744 18.25 372.25 18.25C372.756 18.25 373.167 18.642 373.167 19.125C373.167 19.608 372.756 20 372.25 20Z" fill="#78C081"/>
<path d="M377.75 25.25C376.234 25.25 375 26.4277 375 27.875C375 29.3222 376.234 30.5 377.75 30.5C379.266 30.5 380.5 29.3222 380.5 27.875C380.5 26.4277 379.266 25.25 377.75 25.25ZM377.75 28.75C377.246 28.75 376.833 28.3563 376.833 27.875C376.833 27.3937 377.246 27 377.75 27C378.254 27 378.667 27.3937 378.667 27.875C378.667 28.3563 378.254 28.75 377.75 28.75Z" fill="#78C081"/>
<path d="M380.23 18.5073C379.873 18.166 379.292 18.166 378.934 18.5073L369.768 27.2573C369.41 27.5985 369.41 28.1533 369.768 28.4945C369.947 28.6643 370.182 28.75 370.417 28.75C370.651 28.75 370.886 28.6643 371.064 28.4945L380.23 19.7445C380.588 19.4033 380.588 18.8485 380.23 18.5073Z" fill="#78C081"/>
</g>
<g clip-path="url(#clip2_5503_3)">
<path fill-rule="evenodd" clip-rule="evenodd" d="M454.581 11.3207C455.554 9.35644 457.614 8 460 8C462.386 8 464.446 9.35641 465.419 11.3205C465.669 11.2968 465.923 11.2847 466.18 11.2847C470.499 11.2847 474 14.7031 474 18.9199C474 23.1366 470.499 26.555 466.18 26.555H464.35C464.72 27.9981 464.327 29.5892 463.171 30.7177C461.42 32.4274 458.58 32.4274 456.829 30.7177C455.673 29.5892 455.28 27.9981 455.65 26.555H453.82C449.501 26.555 446 23.1366 446 18.9199C446 14.7031 449.501 11.2847 453.82 11.2847C454.077 11.2847 454.331 11.2969 454.581 11.3207ZM457.566 26.185C457.571 26.1765 457.577 26.1679 457.582 26.1592C457.695 25.9813 457.831 25.8131 457.989 25.6586C458.898 24.7712 460.269 24.6101 461.346 25.1752L457.494 28.9358C457.021 28.0764 457.045 27.0249 457.566 26.185ZM458.654 30.0684C459.731 30.6335 461.102 30.4724 462.011 29.585C462.92 28.6977 463.085 27.3591 462.506 26.3078L458.654 30.0684ZM463.556 24.9532C463.439 24.8048 463.31 24.662 463.171 24.526C461.42 22.8162 458.58 22.8162 456.829 24.526C456.69 24.662 456.561 24.8048 456.444 24.9532H453.82C450.407 24.9532 447.641 22.252 447.641 18.9199C447.641 15.5877 450.407 12.8865 453.82 12.8865C454.205 12.8865 454.581 12.9211 454.946 12.9866C455.344 13.058 455.736 12.8359 455.869 12.4632C456.466 10.7959 458.091 9.60178 460 9.60178C461.909 9.60178 463.534 10.7958 464.131 12.463C464.264 12.8356 464.656 13.0577 465.053 12.9863C465.418 12.9208 465.794 12.8865 466.18 12.8865C469.593 12.8865 472.359 15.5877 472.359 18.9199C472.359 22.252 469.593 24.9532 466.18 24.9532H463.556ZM460 16.5189C459.551 16.5189 459.18 16.8811 459.18 17.3198V19.4555C459.18 19.8941 459.551 20.2563 460 20.2563C460.449 20.2563 460.82 19.894 460.82 19.4555V17.3198C460.82 16.8811 460.449 16.5189 460 16.5189ZM457.539 17.3198C457.539 15.9965 458.645 14.9171 460 14.9171C461.355 14.9171 462.461 15.9965 462.461 17.3198V19.4555C462.461 20.7787 461.355 21.8581 460 21.8581C458.645 21.8581 457.539 20.7788 457.539 19.4555V17.3198ZM451.633 17.3198C451.633 15.9952 452.737 14.9171 454.094 14.9171H455.734C456.187 14.9171 456.555 15.2757 456.555 15.718C456.555 16.1603 456.187 16.5189 455.734 16.5189H454.094C453.643 16.5189 453.273 16.8799 453.273 17.3198V19.4553C453.273 19.8952 453.643 20.2562 454.094 20.2562H455.68C456.133 20.2562 456.5 20.6148 456.5 21.0571C456.5 21.4994 456.133 21.858 455.68 21.858H454.094C452.737 21.858 451.633 20.7799 451.633 19.4553V17.3198ZM465.631 19.0604C465.491 19.0208 465.233 19.0005 464.833 19.1051C464.396 19.2196 463.946 18.966 463.829 18.5388C463.711 18.1115 463.971 17.6724 464.409 17.5579C465.608 17.2442 466.736 17.4973 467.24 18.387C467.65 19.1101 467.457 19.9363 466.9 20.5206H467.629C468.082 20.5206 468.449 20.8792 468.449 21.3215C468.449 21.7638 468.082 22.1224 467.629 22.1224H464.348C463.988 22.1224 463.67 21.8935 463.564 21.5578C463.458 21.2222 463.588 20.8582 463.885 20.6601L465.575 19.5337L465.575 19.5337C465.729 19.4305 465.787 19.3271 465.806 19.2673C465.825 19.2082 465.813 19.1766 465.805 19.1624C465.799 19.1514 465.765 19.098 465.631 19.0604Z" fill="#78C081"/>
</g>
<defs>
<clipPath id="clip0_5503_3">
<rect width="28" height="28" fill="white" transform="translate(191 6)"/>
</clipPath>
<clipPath id="clip1_5503_3">
<rect width="22" height="28" fill="white" transform="translate(364 6)"/>
</clipPath>
<clipPath id="clip2_5503_3">
<rect width="28" height="24" fill="white" transform="translate(446 8)"/>
</clipPath>
</defs>
</svg>
