<svg width="108" height="108" viewBox="0 0 108 108" fill="none" xmlns="http://www.w3.org/2000/svg">
<g filter="url(#filter0_d_5407_14)">
<circle cx="54" cy="50" r="50" fill="#D9FADD"/>
<path d="M62.8787 59.4465C60.14 62.1972 60.4823 67.7477 60.4823 67.7477H46.5929C46.5929 67.7477 46.8864 62.1972 44.1965 59.4465C41.2133 56.794 39.3059 52.9627 39.3059 48.6892C39.3059 40.8301 45.6637 34.4445 53.4887 34.4445C61.3137 34.4445 67.6715 40.8301 67.6715 48.6892C67.6715 52.9627 65.8131 56.794 62.8787 59.4465Z" fill="#C3FF17"/>
<path d="M60.8741 72.1194C60.8741 72.8562 60.2872 73.4456 59.5536 73.4456H47.4738C46.7402 73.4456 46.1533 72.8562 46.1533 72.1194C46.1533 71.3826 46.7402 70.7932 47.4738 70.7932H59.5047C60.2383 70.7932 60.8741 71.3826 60.8741 72.1194Z" fill="#D9FADD"/>
<path d="M59.0642 77.6208C59.0642 78.3576 58.4774 78.947 57.7438 78.947H49.283C48.5494 78.947 47.9625 78.3576 47.9625 77.6208C47.9625 76.884 48.5494 76.2946 49.283 76.2946H57.7438C58.4774 76.2946 59.0642 76.884 59.0642 77.6208Z" fill="#D9FADD"/>
<path d="M63.6131 59.9377C66.792 57.0396 68.6015 52.9626 68.6015 48.6892C68.6015 40.3389 61.8035 33.5112 53.4895 33.5112C45.1754 33.5112 38.3774 40.3389 38.3774 48.6892C38.3774 53.0609 40.2848 57.2361 43.5126 60.085C45.909 62.4919 45.6645 67.6003 45.6645 67.6495C45.6645 67.8951 45.7623 68.1406 45.909 68.3371C46.1046 68.5336 46.3492 68.6318 46.5937 68.6318H60.4342C60.6787 68.6318 60.9232 68.5336 61.1189 68.3371C61.3145 68.1406 61.3634 67.8951 61.3634 67.6495C61.3634 67.6003 61.1189 62.4919 63.5153 60.085C63.5642 60.0359 63.6131 59.9868 63.6131 59.9377ZM62.2437 58.7097C62.1459 58.7588 62.097 58.857 62.0481 58.9553C59.8962 61.2639 59.5539 65.0461 59.5049 66.8144H47.5229C47.474 64.997 47.0828 61.0674 44.7842 58.7588C41.8987 56.2046 40.2359 52.5697 40.2359 48.7384C40.2359 41.3704 46.2024 35.4269 53.4895 35.4269C60.8254 35.4269 66.7431 41.4195 66.7431 48.7384C66.7431 52.5206 65.1292 56.2046 62.2437 58.7097Z" fill="#5CCD6A"/>
<path d="M53.4893 37.4409C53.0002 37.4409 52.5601 37.8338 52.5601 38.3741C52.5601 38.8653 52.9513 39.3074 53.4893 39.3074C58.9668 39.3074 63.4172 43.7773 63.4172 49.2787C63.4172 49.7699 63.8085 50.212 64.3465 50.212C64.8355 50.212 65.2757 49.819 65.2757 49.2787C65.2757 42.7458 59.9938 37.4409 53.4893 37.4409Z" fill="#5CCD6A"/>
<path d="M61.8031 72.1194C61.8031 70.8423 60.7761 69.8599 59.5534 69.8599H47.4736C46.202 69.8599 45.2239 70.8914 45.2239 72.1194C45.2239 73.3965 46.2509 74.3789 47.4736 74.3789H59.5045C60.7761 74.3789 61.8031 73.3965 61.8031 72.1194ZM59.5045 72.5123H47.4736C47.229 72.5123 47.0823 72.3158 47.0823 72.1194C47.0823 71.8738 47.2779 71.7264 47.4736 71.7264H59.5045C59.749 71.7264 59.8958 71.9229 59.8958 72.1194C59.9447 72.365 59.749 72.5123 59.5045 72.5123Z" fill="#5CCD6A"/>
<path d="M57.744 75.3613H49.2833C48.0117 75.3613 47.0336 76.3928 47.0336 77.6208C47.0336 78.8979 48.0606 79.8803 49.2833 79.8803H57.744C59.0156 79.8803 59.9937 78.8488 59.9937 77.6208C59.9937 76.3928 58.9667 75.3613 57.744 75.3613ZM57.744 78.0137H49.2833C49.0387 78.0137 48.892 77.8173 48.892 77.6208C48.892 77.3752 49.0876 77.2278 49.2833 77.2278H57.744C57.9886 77.2278 58.1353 77.4243 58.1353 77.6208C58.1353 77.8664 57.9886 78.0137 57.744 78.0137Z" fill="#5CCD6A"/>
<path d="M54.4185 28.059V21.7717C54.4185 21.2805 54.0272 20.8384 53.4893 20.8384C53.0002 20.8384 52.5601 21.2313 52.5601 21.7717V28.1081C52.5601 28.5993 52.9513 29.0414 53.4893 29.0414C54.0272 28.9923 54.4185 28.5993 54.4185 28.059Z" fill="#5CCD6A"/>
<path d="M68.8946 25.5047C68.4544 25.21 67.9164 25.3574 67.623 25.7503L64.1506 31.0061C63.8572 31.4482 64.0039 31.9885 64.3952 32.2832C64.5419 32.3815 64.7375 32.4306 64.8842 32.4306C65.1777 32.4306 65.4711 32.2832 65.6667 32.0376L69.1391 26.7818C69.4325 26.3889 69.2858 25.7994 68.8946 25.5047Z" fill="#5CCD6A"/>
<path d="M42.4363 32.2341C42.5831 32.2341 42.7787 32.185 42.9254 32.0868C43.3656 31.792 43.4634 31.2517 43.2188 30.8097L39.8443 25.5047C39.5509 25.0626 39.0129 24.9644 38.5728 25.21C38.1326 25.5047 38.0348 26.045 38.2793 26.4871L41.6538 31.792C41.8495 32.0868 42.1429 32.2341 42.4363 32.2341Z" fill="#5CCD6A"/>
<path d="M29.4763 36.6549L35.0027 39.6512C35.1494 39.7494 35.2961 39.7494 35.4428 39.7494C35.7852 39.7494 36.0786 39.553 36.2742 39.2583C36.5188 38.8162 36.3721 38.2267 35.883 37.9811L30.3566 34.9848C29.9164 34.7392 29.3295 34.8866 29.085 35.3778C28.8894 35.869 29.0361 36.4093 29.4763 36.6549Z" fill="#5CCD6A"/>
<path d="M71.5355 39.7986C71.6822 39.7986 71.8289 39.7495 71.9756 39.7004L77.502 36.7041C77.9422 36.4585 78.1378 35.9181 77.8933 35.427C77.6487 34.9849 77.1108 34.7884 76.6217 35.034L71.0953 38.0303C70.6552 38.2759 70.4595 38.8162 70.7041 39.3074C70.8508 39.6021 71.1931 39.7986 71.5355 39.7986Z" fill="#5CCD6A"/>
</g>
<defs>
<filter id="filter0_d_5407_14" x="0" y="0" width="108" height="108" filterUnits="userSpaceOnUse" color-interpolation-filters="sRGB">
<feFlood flood-opacity="0" result="BackgroundImageFix"/>
<feColorMatrix in="SourceAlpha" type="matrix" values="0 0 0 0 0 0 0 0 0 0 0 0 0 0 0 0 0 0 127 0" result="hardAlpha"/>
<feOffset dy="4"/>
<feGaussianBlur stdDeviation="2"/>
<feComposite in2="hardAlpha" operator="out"/>
<feColorMatrix type="matrix" values="0 0 0 0 0 0 0 0 0 0 0 0 0 0 0 0 0 0 0.25 0"/>
<feBlend mode="normal" in2="BackgroundImageFix" result="effect1_dropShadow_5407_14"/>
<feBlend mode="normal" in="SourceGraphic" in2="effect1_dropShadow_5407_14" result="shape"/>
</filter>
</defs>
</svg>
