<svg width="164" height="49" viewBox="0 0 164 49" fill="none" xmlns="http://www.w3.org/2000/svg">
<path d="M0 0H149C157.284 0 164 6.71573 164 15V34C164 42.2843 157.284 49 149 49H0V0Z" fill="#D9FADD"/>
<path fill-rule="evenodd" clip-rule="evenodd" d="M73.0508 38.9567C69.5305 39.0556 65.6403 39.1994 63.2904 36.7457C60.8278 34.1744 60.4845 30.3094 61.6251 27.0263C62.6587 24.0512 65.6704 22.3362 68.7331 21.0796C71.6226 19.8941 74.7789 19.3213 77.7032 20.4295C80.8759 21.6319 83.5804 23.9349 84.4437 27.0333C85.3365 30.2373 84.4611 33.7481 82.1022 36.2169C79.8789 38.5437 76.3857 38.8629 73.0508 38.9567Z" fill="#78C081" fill-opacity="0.15"/>
<path d="M75.5067 24.2164V17.317H79.0514C79.9144 17.317 80.5384 17.501 80.9234 17.869C81.315 18.2304 81.5109 18.8152 81.5109 19.6234C81.5109 20.4316 81.315 21.0197 80.9234 21.3876C80.5384 21.7556 79.9144 21.9396 79.0514 21.9396H76.9106V24.2164H75.5067ZM76.9106 20.6386H78.9718C79.3701 20.6386 79.6588 20.5597 79.8381 20.402C80.0239 20.2378 80.1169 19.9782 80.1169 19.6234C80.1169 19.2751 80.0239 19.0222 79.8381 18.8645C79.6588 18.7002 79.3701 18.6181 78.9718 18.6181H76.9106V20.6386Z" fill="#495E4C"/>
<path d="M84.0635 24.3051C83.393 24.3051 82.8985 24.1802 82.5799 23.9306C82.2679 23.6743 82.1119 23.2669 82.1119 22.7084C82.1119 22.1367 82.2845 21.7293 82.6297 21.4862C82.9748 21.2365 83.5324 21.1117 84.3025 21.1117H85.8558C85.8292 20.7634 85.7197 20.5137 85.5272 20.3626C85.3413 20.2049 85.0493 20.1261 84.651 20.1261C84.0071 20.1261 83.6287 20.3527 83.5159 20.8061H82.2214C82.3011 20.1753 82.5367 19.7187 82.9284 19.4361C83.32 19.147 83.9108 19.0024 84.7008 19.0024C85.5637 19.0024 86.191 19.1799 86.5827 19.5347C86.9743 19.8829 87.1702 20.448 87.1702 21.2299V24.2164H85.8558V23.7334C85.4774 24.1145 84.88 24.3051 84.0635 24.3051ZM83.4262 22.6492C83.4262 23.0041 83.7482 23.1815 84.3921 23.1815C84.8435 23.1815 85.182 23.1026 85.4077 22.9449C85.6401 22.7807 85.7894 22.5277 85.8558 22.186V22.0677H84.651C83.8345 22.0677 83.4262 22.2616 83.4262 22.6492Z" fill="#495E4C"/>
<path d="M88.0916 22.5803H89.386C89.5122 22.9811 89.9337 23.1815 90.6506 23.1815C91.341 23.1815 91.6861 23.0435 91.6861 22.7675C91.6861 22.5178 91.2513 22.3338 90.3817 22.2156C89.5719 22.1236 88.9977 21.9527 88.6592 21.703C88.3206 21.4468 88.1513 21.0657 88.1513 20.5597C88.1513 20.0275 88.3306 19.6365 88.689 19.3868C89.0475 19.1306 89.615 19.0024 90.3917 19.0024C91.1949 19.0024 91.7924 19.1404 92.184 19.4164C92.5823 19.6858 92.818 20.1228 92.891 20.7273H91.5965C91.5235 20.517 91.3907 20.3659 91.1982 20.2739C91.0124 20.1753 90.7369 20.1261 90.3718 20.1261C89.7412 20.1261 89.4259 20.2542 89.4259 20.5104C89.4259 20.747 89.8241 20.9178 90.6207 21.023C91.497 21.1478 92.1044 21.3285 92.4429 21.5651C92.7814 21.795 92.9507 22.1597 92.9507 22.6591C92.9507 23.2111 92.7615 23.625 92.3832 23.901C92.0114 24.1704 91.4206 24.3051 90.6108 24.3051C89.8142 24.3051 89.2134 24.1671 88.8085 23.8911C88.4036 23.6152 88.1646 23.1782 88.0916 22.5803Z" fill="#495E4C"/>
<path d="M96.2522 24.3051C95.3428 24.3051 94.6823 24.0981 94.2707 23.6841C93.8658 23.2636 93.6634 22.5868 93.6634 21.6538C93.6634 20.7273 93.8691 20.0538 94.2807 19.6332C94.6923 19.2127 95.3494 19.0024 96.2522 19.0024C97.0754 19.0024 97.6927 19.17 98.1043 19.5051C98.5158 19.8337 98.7581 20.3626 98.8312 21.092H97.5367C97.4637 20.7831 97.3276 20.5597 97.1285 20.4217C96.9293 20.2838 96.6472 20.2148 96.2821 20.2148C95.8241 20.2148 95.4888 20.3297 95.2764 20.5597C95.0706 20.7831 94.9678 21.1478 94.9678 21.6538C94.9678 22.1531 95.0706 22.5178 95.2764 22.7478C95.4888 22.9778 95.8241 23.0928 96.2821 23.0928C96.9858 23.0928 97.404 22.8004 97.5367 22.2156H98.8312C98.7581 22.9449 98.5158 23.4772 98.1043 23.8123C97.6927 24.1408 97.0754 24.3051 96.2522 24.3051Z" fill="#495E4C"/>
<path d="M101.508 24.3051C100.838 24.3051 100.343 24.1802 100.024 23.9306C99.7125 23.6743 99.5565 23.2669 99.5565 22.7084C99.5565 22.1367 99.7291 21.7293 100.074 21.4862C100.419 21.2365 100.977 21.1117 101.747 21.1117H103.3C103.274 20.7634 103.164 20.5137 102.972 20.3626C102.786 20.2049 102.494 20.1261 102.096 20.1261C101.452 20.1261 101.073 20.3527 100.96 20.8061H99.666C99.7457 20.1753 99.9813 19.7187 100.373 19.4361C100.765 19.147 101.355 19.0024 102.145 19.0024C103.008 19.0024 103.636 19.1799 104.027 19.5347C104.419 19.8829 104.615 20.448 104.615 21.2299V24.2164H103.3V23.7334C102.922 24.1145 102.325 24.3051 101.508 24.3051ZM100.871 22.6492C100.871 23.0041 101.193 23.1815 101.837 23.1815C102.288 23.1815 102.627 23.1026 102.852 22.9449C103.085 22.7807 103.234 22.5277 103.3 22.186V22.0677H102.096C101.279 22.0677 100.871 22.2616 100.871 22.6492Z" fill="#495E4C"/>
<path d="M105.755 24.2164V16.8242H107.07V24.2164H105.755Z" fill="#495E4C"/>
<path d="M110.462 17.317H111.946L114.335 22.7577L116.715 17.317H118.209L115.122 24.2164H113.549L110.462 17.317Z" fill="#495E4C"/>
<path d="M118.98 23.6743C118.561 23.2538 118.352 22.5803 118.352 21.6538C118.352 20.7273 118.561 20.0538 118.98 19.6332C119.398 19.2127 120.075 19.0024 121.011 19.0024C121.94 19.0024 122.611 19.2127 123.022 19.6332C123.44 20.0538 123.649 20.7273 123.649 21.6538C123.649 21.7458 123.643 21.8837 123.63 22.0677H119.696C119.783 22.8102 120.224 23.1815 121.021 23.1815C121.618 23.1815 122.013 22.9811 122.206 22.5803H123.56C123.427 23.2176 123.145 23.6644 122.713 23.9207C122.282 24.177 121.714 24.3051 121.011 24.3051C120.075 24.3051 119.398 24.0948 118.98 23.6743ZM121.021 20.1261C120.649 20.1261 120.354 20.2016 120.135 20.3527C119.916 20.5039 119.776 20.7536 119.716 21.1018H122.325C122.265 20.7536 122.126 20.5039 121.907 20.3527C121.695 20.2016 121.399 20.1261 121.021 20.1261Z" fill="#495E4C"/>
<path d="M125.885 24.2164H124.571V19.0911H125.885V19.6037C126.23 19.2029 126.788 19.0024 127.558 19.0024C128.288 19.0024 128.819 19.1864 129.151 19.5544C129.49 19.9224 129.659 20.5137 129.659 21.3285V24.2164H128.345V21.3285C128.345 20.9408 128.248 20.6583 128.056 20.4809C127.87 20.3035 127.575 20.2148 127.17 20.2148C126.712 20.2148 126.383 20.3297 126.184 20.5597C125.985 20.7831 125.885 21.1478 125.885 21.6538V24.2164Z" fill="#495E4C"/>
<path d="M132.496 19.0911H133.91V20.3035H132.496V22.2747C132.496 22.531 132.556 22.7182 132.676 22.8365C132.795 22.9482 132.994 23.0041 133.273 23.0041H134V24.2164H133.233C132.516 24.2164 131.995 24.0751 131.67 23.7926C131.345 23.51 131.182 23.0566 131.182 22.4324V20.3035H130.425V19.0911H131.182V17.9774H132.496V19.0911Z" fill="#495E4C"/>
<path d="M76.7237 31.7071H78.1309V32.5131H76.7237V36.2629H75.8563V32.5131H75.042V31.7071H75.8563V31.5494C75.8563 30.8953 76.0008 30.4192 76.29 30.1214C76.5791 29.8235 77.0423 29.6745 77.6796 29.6745H78.1841V30.4806H77.7238C77.3757 30.4806 77.1219 30.5653 76.9626 30.7346C76.8033 30.904 76.7237 31.1756 76.7237 31.5494V31.7071Z" fill="#78C081"/>
<path d="M80.6124 36.2629H79.7451V31.7071H80.6124V32.2941C80.9134 31.8561 81.4385 31.637 82.1879 31.637H82.5862V32.443H81.9401C81.468 32.443 81.1287 32.5657 80.9222 32.811C80.7157 33.0505 80.6124 33.4418 80.6124 33.985V36.2629Z" fill="#78C081"/>
<path d="M84.3756 35.7723C84.0098 35.3984 83.8269 34.8027 83.8269 33.985C83.8269 33.1673 84.0098 32.5715 84.3756 32.1977C84.7474 31.8239 85.3463 31.637 86.1724 31.637C86.9926 31.637 87.5826 31.8239 87.9425 32.1977C88.3084 32.5715 88.4913 33.1673 88.4913 33.985C88.4913 34.0142 88.4884 34.058 88.4825 34.1164C88.4825 34.1748 88.4825 34.2186 88.4825 34.2478H84.712C84.7415 34.7034 84.8742 35.0392 85.1103 35.2554C85.3522 35.4715 85.7092 35.5795 86.1812 35.5795C86.8716 35.5795 87.3112 35.3459 87.5 34.8786H88.4028C88.2789 35.416 88.0252 35.7927 87.6416 36.0088C87.264 36.2249 86.7742 36.333 86.1724 36.333C85.3463 36.333 84.7474 36.1461 84.3756 35.7723ZM86.1812 32.3905C85.7387 32.3905 85.3964 32.4868 85.1545 32.6796C84.9185 32.8665 84.7769 33.1731 84.7297 33.5995H87.6239C87.5767 33.1673 87.4351 32.8577 87.1991 32.6708C86.969 32.4839 86.6297 32.3905 86.1812 32.3905Z" fill="#78C081"/>
<path d="M90.0149 34.8786H90.8734C90.9501 35.1239 91.0977 35.3021 91.316 35.4131C91.5343 35.524 91.8441 35.5795 92.2453 35.5795C93.0301 35.5795 93.4225 35.3926 93.4225 35.0188C93.4225 34.8494 93.3163 34.7151 93.1039 34.6158C92.8914 34.5165 92.5492 34.4318 92.0772 34.3617C91.3514 34.2683 90.838 34.1164 90.5371 33.9061C90.2421 33.69 90.0946 33.3746 90.0946 32.9599C90.0946 32.5161 90.2509 32.1861 90.5637 31.9699C90.8764 31.748 91.3691 31.637 92.0417 31.637C92.7144 31.637 93.2219 31.7538 93.5641 31.9875C93.9063 32.2153 94.1188 32.5832 94.2014 33.0914H93.3428C93.2661 32.8461 93.1245 32.6679 92.918 32.5569C92.7115 32.446 92.4135 32.3905 92.024 32.3905C91.2983 32.3905 90.9354 32.5686 90.9354 32.9249C90.9354 33.0884 91.0386 33.2199 91.2452 33.3192C91.4517 33.4126 91.7792 33.4944 92.2276 33.5645C92.9888 33.6813 93.5169 33.839 93.8119 34.0376C94.1128 34.2361 94.2633 34.5399 94.2633 34.9487C94.2633 35.8715 93.5818 36.333 92.2188 36.333C91.5402 36.333 91.0239 36.2162 90.6699 35.9825C90.3158 35.7489 90.0975 35.3809 90.0149 34.8786Z" fill="#78C081"/>
<path d="M96.0358 29.6921H96.9032V32.3204C97.2219 31.8648 97.7795 31.637 98.576 31.637C99.2428 31.637 99.7296 31.7976 100.036 32.1189C100.343 32.4401 100.497 32.9512 100.497 33.6521V36.2629H99.6381V33.6521C99.6381 33.2315 99.5319 32.9249 99.3195 32.7322C99.1071 32.5394 98.7767 32.443 98.3282 32.443C97.8267 32.443 97.4638 32.5657 97.2396 32.811C97.0153 33.0505 96.9032 33.4418 96.9032 33.985V36.2629H96.0358V29.6921Z" fill="#78C081"/>
<path d="M107.213 36.333C106.6 36.333 106.151 36.2249 105.868 36.0088C105.585 35.7927 105.443 35.4452 105.443 34.9662C105.443 34.4698 105.599 34.1164 105.912 33.9061C106.231 33.69 106.741 33.582 107.443 33.582H109.01C109.01 33.1673 108.904 32.8665 108.691 32.6796C108.479 32.4868 108.14 32.3905 107.673 32.3905C107.302 32.3905 107.016 32.4518 106.815 32.5745C106.614 32.6913 106.479 32.8811 106.408 33.1439H105.549C105.632 32.6183 105.844 32.2357 106.186 31.9962C106.529 31.7568 107.036 31.637 107.709 31.637C108.464 31.637 109.013 31.7918 109.355 32.1014C109.703 32.4051 109.877 32.8928 109.877 33.5645V36.2629H109.01V35.6759C108.662 36.1139 108.063 36.333 107.213 36.333ZM106.31 34.9312C106.31 35.159 106.399 35.3254 106.576 35.4306C106.759 35.5299 107.039 35.5795 107.417 35.5795C107.918 35.5795 108.293 35.489 108.541 35.3079C108.795 35.1269 108.951 34.8377 109.01 34.4406V34.2303H107.665C106.762 34.2303 106.31 34.4639 106.31 34.9312Z" fill="#78C081"/>
<path d="M111.877 36.2629V31.7071H112.745V36.2629H111.877ZM111.868 30.8222C111.78 30.7346 111.736 30.5886 111.736 30.3842C111.736 30.1798 111.78 30.0337 111.868 29.9461C111.957 29.8585 112.104 29.8147 112.311 29.8147C112.517 29.8147 112.665 29.8585 112.753 29.9461C112.842 30.0337 112.886 30.1798 112.886 30.3842C112.886 30.5886 112.842 30.7346 112.753 30.8222C112.665 30.9099 112.517 30.9537 112.311 30.9537C112.104 30.9537 111.957 30.9099 111.868 30.8222Z" fill="#78C081"/>
<path d="M115.631 36.2629H114.763V31.7071H115.631V32.2941C115.932 31.8561 116.457 31.637 117.206 31.637H117.605V32.443H116.958C116.486 32.443 116.147 32.5657 115.941 32.811C115.734 33.0505 115.631 33.4418 115.631 33.985V36.2629Z" fill="#78C081"/>
<path fill-rule="evenodd" clip-rule="evenodd" d="M41.2102 21.1837C40.0868 25.1513 39.8298 29.3093 40.0972 33.3924C39.9762 34.6904 40.6888 35.9437 41.6359 36.8379C43.0222 38.1388 45.7531 37.9614 47.5457 37.7782C50.8099 37.4696 52.2619 34.5187 52.4531 31.6761C52.5995 26.7623 52.6354 21.5991 52.6249 16.6767C52.6227 16.5365 52.623 16.3894 52.6233 16.2381C52.6246 15.5895 52.6261 14.8652 52.4263 14.2898C51.9407 12.6831 50.4304 12.1062 48.9126 12.4149C48.6059 12.5112 48.3105 12.6384 48.0312 12.7942C47.1198 13.2835 46.2679 13.8698 45.4916 14.5422C43.9397 15.8647 42.7054 17.4983 41.8749 19.329C41.7929 19.4947 41.7097 19.7211 41.6326 19.9306C41.5889 20.0492 41.5473 20.1625 41.5089 20.2564C41.4296 20.4506 41.3485 20.7225 41.2777 20.96C41.2539 21.0399 41.2312 21.1159 41.2102 21.1837ZM40.0972 33.3924C40.5708 29.2372 41.237 25.0994 42.7533 21.188C43.576 19.1276 44.9453 17.3121 46.7241 15.9238C46.8871 15.7881 47.1289 15.6123 47.326 15.469C47.3655 15.4403 47.4033 15.4129 47.4382 15.3873C47.4382 15.3873 48.6602 14.3547 49.322 14.2984C49.9837 14.2422 50.3468 14.2883 50.4962 14.9979L50.5425 15.3368L50.5529 15.7118C50.5425 17.4122 50.535 20.5549 50.5529 22.2856C50.5753 24.7821 50.6052 27.2787 50.665 29.7738L50.7053 31.5939C50.6986 32.161 50.6315 32.726 50.5051 33.2799C50.2183 34.5909 49.4893 35.8673 48.1672 36.3836C47.3157 36.685 46.391 36.8033 45.4946 36.9071C44.4444 36.9965 43.3449 37.0499 42.3754 36.6288C41.1907 35.9451 40.2347 34.761 40.0972 33.3924Z" fill="#78C081"/>
<path d="M66.6881 22.2789C67.262 23.6863 68.3076 25.8863 68.6689 28.5295C68.4099 23.6995 68.0728 23.6863 67.906 22.9458C67.6389 21.7603 67.2816 20.5956 66.837 19.461C65.5629 16.5361 63.2794 14.1287 60.3756 12.6489C60.1285 12.5154 59.86 12.4227 59.5814 12.3746C59.4216 12.366 59.3291 12.34 59.1066 12.34C57.5913 12.2563 56.4447 13.2162 56.1834 14.6251C56.0461 15.2358 56.0834 15.985 56.0834 16.5869C56.0655 19.8537 56.058 23.9072 56.1133 27.1927C56.1357 28.3735 56.1506 29.5543 56.1834 30.7352C56.1783 31.3728 56.2282 32.0097 56.3327 32.6392C56.8329 35.4989 58.502 37.709 61.6909 37.836C63.2764 37.9472 64.9679 38.0121 66.4429 37.3163C67.5999 36.697 68.071 35.6507 68.4099 34.4959C68.6315 33.7408 68.9317 32.9682 70.1926 31.7339C68.9317 32.4745 68.5143 32.8471 67.6707 34.9431C66.5406 36.8081 65.7293 37.0363 63.6183 36.9078C63.0299 36.8638 62.4447 36.7866 61.8656 36.6768C61.34 36.5743 60.7653 36.4762 60.295 36.2293C58.8454 35.5119 58.2467 33.9009 58.078 32.4054C58.0198 31.8635 58.0064 31.3181 58.0377 30.7741C58.0884 28.7185 58.1482 25.7693 58.1482 23.6863C58.1482 21.6033 58.1795 18.6281 58.1482 16.5754C58.1541 15.9676 58.0213 15.038 58.3422 14.5241C58.5692 14.1545 58.9399 14.0396 59.553 14.3234C62.145 15.5461 64.2628 17.5407 65.5949 20.0139C65.983 20.7885 66.4398 21.6701 66.6881 22.2789Z" fill="#78C081"/>
<path d="M54.4751 15.8129C54.5805 15.6019 54.4931 15.3463 54.28 15.2421C54.0668 15.1378 53.8087 15.2243 53.7034 15.4352L51.6698 19.5087C51.5645 19.7196 51.6518 19.9752 51.865 20.0795C52.0781 20.1838 52.3362 20.0973 52.4416 19.8863L54.4751 15.8129Z" fill="#78C081"/>
<path d="M53.9652 15.8129C53.8599 15.6019 53.9473 15.3463 54.1604 15.2421C54.3735 15.1378 54.6317 15.2243 54.737 15.4352L56.7706 19.5087C56.8759 19.7196 56.7885 19.9752 56.5754 20.0795C56.3623 20.1838 56.1041 20.0973 55.9988 19.8863L53.9652 15.8129Z" fill="#78C081"/>
<path d="M53.7745 10.4261C53.7745 10.1908 53.9672 10 54.205 10C54.4427 10 54.6354 10.1908 54.6354 10.4261V15.8245C54.6354 16.0598 54.4427 16.2505 54.205 16.2505C53.9672 16.2505 53.7745 16.0598 53.7745 15.8245V10.4261Z" fill="#78C081"/>
<path d="M67.0758 36.1998C66.9443 35.946 66.8113 35.7119 66.6756 35.4779C66.54 35.244 66.4018 35.0133 66.257 34.782C66.1121 34.5507 65.9599 34.3301 65.8118 34.1104C65.7732 34.053 65.7297 34.001 65.6886 33.9458C65.6475 33.8906 65.6027 33.8387 65.5576 33.7848C65.5126 33.7309 65.4638 33.6803 65.4133 33.6247C65.3894 33.5978 65.3631 33.5722 65.3347 33.5481C65.3075 33.522 65.2791 33.4959 65.2531 33.4676C65.428 33.5029 65.5921 33.5625 65.7376 33.6435C65.8112 33.6828 65.8811 33.726 65.9469 33.7727C66.014 33.8184 66.0776 33.8671 66.1372 33.9186C66.3735 34.1215 66.5709 34.3498 66.7236 34.5968C66.8777 34.8414 66.9916 35.1008 67.0627 35.3689C67.1416 35.6404 67.1461 35.9233 67.0758 36.1998Z" fill="#78C081"/>
<path d="M66.95 33.4569C66.8291 33.1693 66.631 32.9164 66.3744 32.7219C66.1279 32.5323 65.8463 32.3858 65.5429 32.2892C65.237 32.1951 64.9206 32.1316 64.5991 32.1C64.2742 32.0637 63.9407 32.0466 63.6031 32.0301L63.8846 31.7515C63.9389 32.158 64.0026 32.562 64.0473 32.9697C64.0745 33.173 64.0936 33.3785 64.1271 33.5667C64.14 33.6633 64.1606 33.7549 64.1851 33.8448C64.2106 33.9349 64.2428 34.0231 64.2816 34.1087C64.4397 34.4572 64.6925 34.7603 65.0156 34.9885C65.3543 35.2312 65.7545 35.3899 66.1794 35.45C65.7208 35.5029 65.2583 35.4201 64.8578 35.2133C64.4395 35.0029 64.0982 34.6824 63.876 34.2911C63.8207 34.1908 63.7734 34.0869 63.7342 33.9801C63.6965 33.8758 63.6665 33.7692 63.6443 33.661C63.5956 33.4425 63.5686 33.2405 63.5367 33.043C63.4723 32.634 63.4182 32.2288 63.3639 31.8223L63.3235 31.52L63.6467 31.5436C63.9937 31.5675 64.3388 31.6086 64.6804 31.6667C65.0321 31.7241 65.3732 31.825 65.6947 31.9669C66.0204 32.111 66.3084 32.3182 66.5399 32.5748C66.7703 32.8218 66.9133 33.1295 66.95 33.4569Z" fill="#78C081"/>
<path d="M67.5378 33.299C67.4262 33.1175 67.3479 32.9147 67.3082 32.7041C67.2679 32.4908 67.2546 32.2748 67.2688 32.0629C67.3058 31.6394 67.4102 31.2337 67.577 30.865C67.7405 30.4892 67.9545 30.1478 68.212 29.8518C68.347 29.6997 68.4983 29.5671 68.663 29.4564C68.8261 29.3507 68.9981 29.2613 69.177 29.1892C69.3523 29.1136 69.5304 29.0572 69.706 29.0037C69.8816 28.9501 70.0544 28.9035 70.2302 28.8559C70.5785 28.7659 70.9183 28.6766 71.2392 28.5613C71.5487 28.4561 71.8397 28.3011 72.1036 28.1007C72.3817 27.8931 72.606 27.6093 72.7583 27.2722C72.8725 26.9912 72.9677 26.6944 73.0727 26.4064C73.0435 26.4904 73.1398 26.7869 73.1561 26.8882C73.2439 27.4294 73.2818 27.9742 73.2689 28.5136C73.265 28.868 73.2393 29.2194 73.192 29.5652L73.1707 29.699L73.0963 30.0796C73.0615 30.246 73.0237 30.4134 72.9774 30.5815C72.8821 30.9239 72.7388 31.2424 72.5526 31.5258C72.4597 31.6648 72.3574 31.7952 72.2466 31.916C72.1336 32.0335 72.0207 32.141 71.9044 32.2435C71.6716 32.4491 71.4238 32.6333 71.1632 32.7945C70.6454 33.116 70.0789 33.3398 69.4838 33.4579C70.0194 33.2132 70.5222 32.8964 70.9823 32.5137C71.2086 32.3262 71.4229 32.1215 71.6237 31.9009C71.822 31.6908 71.9983 31.4556 72.1494 31.1992C72.2875 30.9442 72.3877 30.6628 72.4467 30.3651C72.4794 30.2135 72.5072 30.0574 72.5317 29.8965L72.567 29.6534L72.5851 29.5308L72.5994 29.4174C72.6293 29.098 72.6424 28.7752 72.6387 28.4506C72.6384 28.1206 72.8282 28.4388 72.5072 28.6949C72.1926 28.9379 71.8421 29.1207 71.4678 29.237C71.1097 29.3545 70.7498 29.4302 70.4005 29.5065C70.0511 29.5828 69.7016 29.6532 69.3817 29.756C69.2245 29.8046 69.0724 29.8686 68.9272 29.9474C68.7839 30.0261 68.6507 30.1238 68.5298 30.2387C68.2749 30.477 68.0539 30.7573 67.8732 31.0718C67.6835 31.3849 67.5437 31.7361 67.4592 32.1112C67.3658 32.4932 67.3935 32.912 67.5378 33.299Z" fill="#78C081"/>
</svg>
