<svg width="22" height="22" viewBox="0 0 22 22" fill="none" xmlns="http://www.w3.org/2000/svg">
<path d="M21.4919 17.2439C21.4908 17.2427 21.4896 17.2414 21.4883 17.2401C21.46 17.2114 21.4083 17.1674 21.3236 17.1084C21.1546 16.9905 20.8978 16.8429 20.5423 16.6653L20.5282 16.6582L20.5145 16.6503C20.3235 16.5393 20.0472 16.3861 19.6836 16.1885C19.3175 15.9898 18.9845 15.8062 18.6853 15.6381C18.3842 15.4693 18.1015 15.3055 17.8369 15.1469L17.8146 15.1335L17.7937 15.1178C17.7621 15.094 17.6429 15.0105 17.4194 14.8559C17.2108 14.7121 17.05 14.6161 16.9314 14.5588C16.839 14.5144 16.7651 14.4996 16.7056 14.4992C16.7025 14.4998 16.6692 14.5051 16.5994 14.5449C16.5159 14.5925 16.4053 14.6752 16.2668 14.8067C15.9749 15.0843 15.7072 15.3857 15.4639 15.7122L15.4638 15.7123C15.1904 16.0789 14.8997 16.4188 14.592 16.7323L14.5918 16.7325C14.4298 16.8974 14.2655 17.0385 14.0998 17.1412C13.9379 17.2414 13.7386 17.3274 13.5163 17.3274C13.3381 17.3274 13.1576 17.2798 12.9918 17.2187L12.9908 17.2183C12.8432 17.1637 12.7187 17.1124 12.6238 17.0658L12.6184 17.0632L12.6184 17.0632C12.5246 17.0157 12.3838 16.9329 12.2068 16.8233C12.1183 16.7688 12.0507 16.7274 12.003 16.6985C11.979 16.6839 11.9612 16.6733 11.9489 16.6661C11.9449 16.6637 11.942 16.662 11.9401 16.6609L11.9385 16.6601L11.9296 16.6552C10.467 15.8437 9.20457 14.9103 8.14674 13.853L8.14658 13.8529C7.08913 12.795 6.15561 11.5327 5.34421 10.0699L5.3389 10.0604L5.338 10.0586C5.33693 10.0567 5.33537 10.054 5.33322 10.0504C5.32608 10.0382 5.3155 10.0205 5.30101 9.99658C5.27216 9.94897 5.23072 9.88142 5.17629 9.79328C5.06777 9.61765 4.98349 9.47501 4.93554 9.37889C4.93548 9.37878 4.93543 9.37866 4.93537 9.37855L5.38285 9.15547C5.3464 9.08263 5.30212 8.9758 5.25013 8.83521C5.19814 8.69462 5.17203 8.5775 5.17203 8.48365C5.17203 8.29626 5.32051 8.05656 5.61742 7.76487L21.4919 17.2439ZM21.4919 17.2439C21.4924 17.2466 21.493 17.2499 21.4935 17.2538C21.4971 17.2788 21.5001 17.3177 21.5 17.3738V17.375C21.5 17.6022 21.4571 17.9277 21.3564 18.364L21.3563 18.3644C21.2553 18.8042 21.1547 19.126 21.0582 19.3444L21.0581 19.3443L21.0544 19.3531C20.9856 19.5169 20.8327 19.7259 20.5469 19.9742C20.2646 20.2196 19.8754 20.4839 19.3691 20.7647C18.4519 21.2619 17.5648 21.5 16.7032 21.5C16.4445 21.5 16.1938 21.483 15.9509 21.4501C15.7133 21.4173 15.4371 21.3578 15.1196 21.2685C14.7888 21.1752 14.5545 21.1033 14.4096 21.0518L14.4095 21.0518C14.2527 20.9961 13.9674 20.8908 13.5504 20.7345C13.1455 20.5823 12.8819 20.4852 12.7727 20.4487C11.7827 20.0945 10.9057 19.6777 10.1394 19.2001L10.1375 19.1989C8.84484 18.4012 7.49725 17.3055 6.09543 15.9038C4.69367 14.502 3.59778 13.1542 2.80037 11.8618L2.79916 11.8599C2.32137 11.0933 1.90443 10.2165 1.55055 9.22646C1.51417 9.11825 1.41693 8.85454 1.26504 8.44906L1.26497 8.44889C1.10856 8.03182 1.00329 7.7468 0.947812 7.5903L21.4919 17.2439ZM7.44057 5.06866L7.44045 5.06841C7.38344 4.95007 7.28756 4.78937 7.14358 4.58084C6.98968 4.35813 6.90515 4.23776 6.88089 4.20531L6.86564 4.18492L6.85254 4.16308C6.69367 3.89822 6.53001 3.61548 6.36122 3.31518L7.44057 5.06866ZM7.44057 5.06866C7.48498 5.16071 7.49978 5.2346 7.50019 5.29417M7.44057 5.06866L7.50019 5.29417M5.81068 2.31657L5.81064 2.3165C5.6134 1.95325 5.45991 1.6768 5.34876 1.48506L5.34101 1.47168L5.3341 1.45785C5.15644 1.10242 5.00881 0.845707 4.8909 0.676606C4.83185 0.591916 4.78784 0.540248 4.75915 0.511886C4.75785 0.510601 4.75661 0.509399 4.75545 0.508276C4.75269 0.507794 4.74942 0.507266 4.74561 0.50672C4.72039 0.503103 4.68127 0.5 4.62528 0.5C4.39795 0.5 4.07246 0.54303 3.63579 0.643554L3.63558 0.643602C3.1962 0.744555 2.874 0.845419 2.65482 0.941993L2.64676 0.945543L2.64673 0.945471C2.48307 1.01417 2.27428 1.16708 2.0259 1.45289C1.78049 1.7353 1.51618 2.12454 1.23524 2.63084C0.737979 3.54778 0.5 4.43473 0.5 5.29643C0.5 5.55577 0.516814 5.80644 0.550032 6.04874L5.81068 2.31657ZM5.81068 2.31657C6.00943 2.68247 6.19279 3.01557 6.3612 3.31514L5.81068 2.31657ZM0.731405 6.87973L0.731456 6.87991C0.824493 7.21084 0.896433 7.44531 0.947797 7.59025L0.731405 6.87973ZM0.731405 6.87973C0.642104 6.56253 0.582619 6.28615 0.550041 6.04881L0.731405 6.87973ZM7.50019 5.29417C7.49967 5.29697 7.4946 5.33021 7.45451 5.40053C7.40688 5.48406 7.32413 5.59475 7.19253 5.73332L7.50019 5.29417ZM21.5038 17.2571C21.505 17.2585 21.5055 17.2592 21.5054 17.2592C21.5053 17.2591 21.5048 17.2584 21.5038 17.2571ZM4.74222 0.496383C4.74081 0.495398 4.7401 0.494828 4.7401 0.494788C4.7401 0.494749 4.74081 0.495241 4.74222 0.496383Z" fill="#78C081" stroke="#577A5B"/>
</svg>
